<!DOCTYPE svg PUBLIC "-//W3C//DTD SVG 1.1//EN" "http://www.w3.org/Graphics/SVG/1.1/DTD/svg11.dtd">
<!-- Uploaded to: SVG Repo, www.svgrepo.com, Transformed by: SVG Repo Mixer Tools -->
<svg width="800px" height="800px" viewBox="0 0 1024 1024" xmlns="http://www.w3.org/2000/svg" fill="#000000">
<g id="SVGRepo_bgCarrier" stroke-width="0"/>
<g id="SVGRepo_tracerCarrier" stroke-linecap="round" stroke-linejoin="round"/>
<g id="SVGRepo_iconCarrier">
<path fill="#027202" d="M512 512a192 192 0 1 0 0-384 192 192 0 0 0 0 384zm0 64a256 256 0 1 1 0-512 256 256 0 0 1 0 512zm320 320v-96a96 96 0 0 0-96-96H288a96 96 0 0 0-96 96v96a32 32 0 1 1-64 0v-96a160 160 0 0 1 160-160h448a160 160 0 0 1 160 160v96a32 32 0 1 1-64 0z"/>
</g>
</svg>